<svg width="30" height="25" viewBox="0 0 30 25" fill="none" xmlns="http://www.w3.org/2000/svg">
<path d="M15.0054 9.99108C15.5207 9.99108 15.9536 9.52287 15.9536 8.94965V4.5718L15.8132 2.80394L16.6795 3.7993L18.143 5.27412C18.3182 5.43805 18.5405 5.54305 18.7752 5.54305C19.2429 5.54305 19.5707 5.22698 19.5707 4.7593C19.5707 4.51287 19.4887 4.3259 19.29 4.1384L15.6375 0.744655C15.3911 0.522333 15.2159 0.440369 15.0054 0.440369C14.783 0.440369 14.6191 0.522333 14.3732 0.744655L10.7212 4.13948C10.5225 4.32698 10.4405 4.51394 10.4405 4.7593C10.4405 5.22751 10.7679 5.54358 11.2361 5.54358C11.4584 5.54358 11.6925 5.43858 11.8564 5.27465L13.4368 3.68251L14.1857 2.80501L14.0454 4.57233V8.95019C14.0454 9.52341 14.49 9.99162 15.0054 9.99162V9.99108ZM21.0337 13.1984C21.4087 13.5611 22.0291 13.5611 22.462 13.1395L24.4982 11.1032C24.9316 10.6698 24.9198 10.0613 24.5454 9.69858C24.1945 9.32358 23.5741 9.31233 23.1407 9.74519L21.1039 11.782C20.6829 12.2154 20.6711 12.847 21.0343 13.1984H21.0337ZM8.96625 13.1984C9.32893 12.8357 9.32893 12.2154 8.89607 11.782L6.85928 9.74519C6.42589 9.31233 5.82911 9.33591 5.45464 9.69858C5.07964 10.0495 5.07964 10.6698 5.51304 11.1032L7.54982 13.14C7.98268 13.5611 8.60303 13.5729 8.96625 13.1984ZM1.01786 24.833H28.9811C29.543 24.833 29.9995 24.412 29.9995 23.8848C29.9995 23.37 29.543 22.9484 28.9816 22.9484H20.1911C20.9822 21.8731 21.4088 20.573 21.4087 19.238C21.4087 15.7264 18.4939 12.8239 15.0059 12.8239C11.5061 12.8239 8.60304 15.7264 8.60304 19.238C8.60304 20.6309 9.04768 21.907 9.82071 22.9484H1.01786C0.468214 22.9484 0 23.37 0 23.8848C0 24.412 0.468214 24.833 1.01786 24.833ZM10.4871 19.238C10.4871 16.7566 12.5239 14.7198 15.0054 14.7198C17.4868 14.7198 19.5236 16.7566 19.5236 19.238C19.523 19.9738 19.3398 20.6979 18.9905 21.3455C18.6412 21.9931 18.1367 22.5438 17.5221 22.9484H12.4768C11.8656 22.5413 11.3642 21.9897 11.0172 21.3425C10.6701 20.6953 10.488 19.9724 10.4871 19.238ZM2.53982 19.8938H5.41929C6.02786 19.8938 6.48482 19.4604 6.47304 18.9455C6.46125 18.4189 6.02839 17.9855 5.41929 17.9855H2.53982C1.93125 17.9855 1.49839 18.4189 1.49839 18.9455C1.49839 19.4604 1.93125 19.8938 2.53982 19.8938ZM24.592 19.8938H27.472C28.0687 19.8938 28.5134 19.4604 28.5134 18.9455C28.5134 18.4189 28.0687 17.9855 27.472 17.9855H24.592C23.9834 17.9855 23.527 18.4189 23.5387 18.9455C23.5505 19.4604 23.9834 19.8938 24.592 19.8938Z" fill="url(#paint0_linear_123_288)"/>
<defs>
<linearGradient id="paint0_linear_123_288" x1="14.9997" y1="0.440369" x2="14.9997" y2="24.833" gradientUnits="userSpaceOnUse">
<stop offset="0.895" stop-color="#FCDDA2"/>
<stop offset="1" stop-color="#0084FE"/>
</linearGradient>
</defs>
</svg>
