<svg width="30" height="25" viewBox="0 0 30 25" fill="none" xmlns="http://www.w3.org/2000/svg">
<path d="M15.0054 9.99107C15.2164 9.99107 15.3921 9.90911 15.6375 9.68678L19.29 6.28071C19.4888 6.09321 19.5707 5.90571 19.5707 5.66035C19.5707 5.20393 19.2429 4.87607 18.7746 4.87607C18.5405 4.87607 18.3182 4.9816 18.1425 5.14553L16.68 6.62035L15.8138 7.62696L15.9541 5.85911V1.47C15.9541 0.896784 15.5207 0.439819 15.0059 0.439819C14.4905 0.439819 14.0459 0.896248 14.0459 1.47V5.85911L14.1862 7.62696L13.4373 6.73768L11.857 5.14553C11.6936 4.9816 11.4595 4.87607 11.2366 4.87607C10.7684 4.87607 10.4411 5.20393 10.4411 5.66035C10.4411 5.90625 10.523 6.09321 10.7218 6.28071L14.3737 9.68678C14.6196 9.90911 14.7836 9.99107 15.0059 9.99107H15.0054ZM21.0338 13.1984C21.4088 13.5611 22.0291 13.5611 22.462 13.1395L24.4982 11.1032C24.9316 10.6698 24.9198 10.0612 24.5454 9.69857C24.1945 9.32357 23.5741 9.31232 23.1407 9.74518L21.1039 11.782C20.6829 12.2154 20.6711 12.847 21.0343 13.1984H21.0338ZM7.54982 13.1395C7.98268 13.5611 8.60304 13.5734 8.96625 13.1984C9.32893 12.8357 9.32893 12.2154 8.89607 11.782L6.85929 9.74518C6.42589 9.31232 5.82911 9.33589 5.45464 9.69857C5.07964 10.0495 5.07964 10.6698 5.51304 11.1032L7.54982 13.1395ZM1.01786 24.8336H28.9811C29.543 24.8336 29.9995 24.4125 29.9995 23.8854C29.9995 23.3705 29.543 22.9489 28.9816 22.9489H20.1911C20.9822 21.8736 21.4088 20.5735 21.4088 19.2386C21.4088 15.727 18.4939 12.8245 15.0059 12.8245C11.5061 12.8245 8.60304 15.727 8.60304 19.2386C8.60304 20.6314 9.04768 21.9075 9.82071 22.9489H1.01786C0.468214 22.9484 0 23.37 0 23.8848C0 24.412 0.468214 24.833 1.01786 24.833V24.8336ZM10.4871 19.2386C10.4871 16.7571 12.5239 14.7204 15.0054 14.7204C17.4868 14.7204 19.5236 16.7571 19.5236 19.2386C19.523 19.9743 19.3398 20.6985 18.9905 21.346C18.6412 21.9936 18.1367 22.5443 17.5221 22.9489H12.4768C11.8656 22.5418 11.3642 21.9902 11.0172 21.343C10.6701 20.6958 10.488 19.973 10.4871 19.2386ZM2.53982 19.8937H5.41929C6.02786 19.8937 6.48482 19.4604 6.47304 18.9455C6.46125 18.4189 6.02839 17.9855 5.41929 17.9855H2.53982C1.93125 17.9855 1.49839 18.4189 1.49839 18.9455C1.49839 19.4604 1.93125 19.8937 2.53982 19.8937ZM24.592 19.8937H27.472C28.0688 19.8937 28.5134 19.4604 28.5134 18.9455C28.5134 18.4189 28.0688 17.9855 27.472 17.9855H24.592C23.9834 17.9855 23.527 18.4189 23.5387 18.9455C23.5505 19.4604 23.9834 19.8937 24.592 19.8937Z" fill="url(#paint0_linear_123_290)"/>
<defs>
<linearGradient id="paint0_linear_123_290" x1="14.9997" y1="0.439819" x2="14.9997" y2="24.8336" gradientUnits="userSpaceOnUse">
<stop offset="0.825" stop-color="#E6A500"/>
<stop offset="1" stop-color="#0040E6"/>
</linearGradient>
</defs>
</svg>
